<svg width="28" height="27" viewBox="0 0 28 27" fill="none" xmlns="http://www.w3.org/2000/svg">
<ellipse cx="13.596" cy="13.2" rx="13.596" ry="13.2" fill="url(#paint0_linear_301_146)"/>
<path d="M23.5354 17.7724L15.5484 10.018C15.7786 9.0057 15.7153 7.9513 15.3656 6.97182C15.0159 5.99234 14.3934 5.12613 13.5673 4.46934C12.7412 3.81255 11.7438 3.39089 10.6858 3.25117C9.62776 3.11146 8.55056 3.25915 7.57378 3.67786L6.73959 4.03445L10.0888 7.28611L8.33327 8.99655L4.98406 5.7449L4.61677 6.54874C4.18304 7.49701 4.02904 8.54359 4.17195 9.57184C4.31485 10.6001 4.74904 11.5696 5.42613 12.3724C6.10322 13.1751 6.99661 13.7796 8.00673 14.1183C9.01685 14.4571 10.104 14.5169 11.1471 14.2911L19.1341 22.0455C19.2498 22.1579 19.3871 22.247 19.5382 22.3079C19.6894 22.3687 19.8514 22.4 20.015 22.4C20.1786 22.4 20.3407 22.3687 20.4918 22.3079C20.6429 22.247 20.7803 22.1579 20.8959 22.0455L23.5354 19.4828C23.6512 19.3706 23.743 19.2372 23.8057 19.0905C23.8683 18.9438 23.9006 18.7865 23.9006 18.6276C23.9006 18.4688 23.8683 18.3115 23.8057 18.1647C23.743 18.018 23.6512 17.8847 23.5354 17.7724ZM20.0119 21.1933L11.5206 12.9433L11.1658 13.04C10.49 13.2318 9.77755 13.2679 9.08494 13.1454C8.39232 13.0229 7.73867 12.7453 7.17597 12.3345C6.61327 11.9238 6.15703 11.3912 5.84353 10.7792C5.53002 10.1672 5.36789 9.49269 5.37003 8.80919C5.36926 8.50869 5.40056 8.20892 5.46341 7.91468L8.33327 10.7009L11.8568 7.28006L8.98692 4.49984C9.75258 4.34379 10.5468 4.38311 11.2922 4.61395C12.0375 4.84479 12.7085 5.25928 13.2396 5.81696C13.7708 6.37464 14.1439 7.05648 14.3227 7.79594C14.5015 8.5354 14.4798 9.30722 14.2597 10.0361L14.1601 10.3806L22.6577 18.6306L20.0119 21.1933Z" fill="black"/>
<path d="M20.341 18.9213C20.6571 18.6145 20.6571 18.117 20.341 17.8101C20.025 17.5033 19.5126 17.5033 19.1965 17.8101C18.8805 18.117 18.8805 18.6145 19.1965 18.9213C19.5126 19.2281 20.025 19.2281 20.341 18.9213Z" fill="black"/>
<defs>
<linearGradient id="paint0_linear_301_146" x1="10.5167" y1="19.3313" x2="15.4125" y2="26.1583" gradientUnits="userSpaceOnUse">
<stop stop-color="#C8B7A5"/>
<stop offset="1" stop-color="#C0A588"/>
</linearGradient>
</defs>
</svg>
