<svg width="28" height="27" viewBox="0 0 28 27" fill="none" xmlns="http://www.w3.org/2000/svg">
<path d="M23.5353 17.7723L15.5483 10.0179C15.7784 9.00566 15.7152 7.95125 15.3655 6.97177C15.0158 5.9923 14.3933 5.12608 13.5672 4.46929C12.7411 3.8125 11.7437 3.39084 10.6856 3.25113C9.62764 3.11141 8.55044 3.25911 7.57366 3.67781L6.73947 4.03441L10.0887 7.28606L8.33315 8.9965L4.98394 5.74485L4.61665 6.5487C4.18292 7.49697 4.02892 8.54355 4.17182 9.57179C4.31473 10.6 4.74892 11.5696 5.42601 12.3723C6.1031 13.1751 6.99648 13.7795 8.00661 14.1183C9.01673 14.4571 10.1039 14.5169 11.147 14.291L19.134 22.0454C19.2497 22.1578 19.387 22.247 19.5381 22.3078C19.6893 22.3686 19.8513 22.4 20.0149 22.4C20.1785 22.4 20.3405 22.3686 20.4917 22.3078C20.6428 22.247 20.7801 22.1578 20.8958 22.0454L23.5353 19.4828C23.6511 19.3705 23.7429 19.2372 23.8055 19.0905C23.8682 18.9437 23.9005 18.7864 23.9005 18.6276C23.9005 18.4687 23.8682 18.3114 23.8055 18.1647C23.7429 18.0179 23.6511 17.8846 23.5353 17.7723ZM20.0118 21.1932L11.5205 12.9432L11.1657 13.0399C10.4899 13.2317 9.77743 13.2678 9.08481 13.1454C8.39219 13.0229 7.73855 12.7453 7.17585 12.3345C6.61315 11.9237 6.15691 11.3912 5.84341 10.7792C5.5299 10.1672 5.36777 9.49264 5.36991 8.80914C5.36914 8.50864 5.40043 8.20887 5.46329 7.91463L8.33315 10.7009L11.8567 7.28002L8.9868 4.49979C9.75246 4.34375 10.5467 4.38306 11.292 4.6139C12.0374 4.84475 12.7084 5.25923 13.2395 5.81691C13.7707 6.3746 14.1438 7.05643 14.3226 7.79589C14.5014 8.53535 14.4797 9.30718 14.2596 10.0361L14.16 10.3806L22.6575 18.6306L20.0118 21.1932Z" fill="black"/>
<path d="M20.3408 18.9213C20.6569 18.6145 20.6569 18.117 20.3408 17.8101C20.0248 17.5033 19.5124 17.5033 19.1963 17.8101C18.8803 18.117 18.8803 18.6145 19.1963 18.9213C19.5124 19.2281 20.0248 19.2281 20.3408 18.9213Z" fill="black"/>
</svg>
