<svg width="28" height="27" viewBox="0 0 28 27" fill="none" xmlns="http://www.w3.org/2000/svg">
<path d="M9.25602 9.99998H13.376M9.25602 12.8H15.848M9.25602 17.6V19.4684C9.25602 19.8947 9.25602 20.1078 9.34603 20.2173C9.4243 20.3125 9.543 20.3679 9.66847 20.3677C9.81274 20.3676 9.98417 20.2345 10.327 19.9681L12.2926 18.4414C12.6942 18.1296 12.895 17.9737 13.1185 17.8628C13.3169 17.7644 13.528 17.6925 13.7462 17.649C13.9921 17.6 14.2492 17.6 14.7634 17.6H16.8368C18.2213 17.6 18.9135 17.6 19.4423 17.3384C19.9075 17.1083 20.2856 16.7412 20.5226 16.2896C20.792 15.7761 20.792 15.1041 20.792 13.76V9.43998C20.792 8.09585 20.792 7.42378 20.5226 6.9104C20.2856 6.45881 19.9075 6.09166 19.4423 5.86156C18.9135 5.59998 18.2213 5.59998 16.8368 5.59998H9.91522C8.53077 5.59998 7.83854 5.59998 7.30976 5.86156C6.84462 6.09166 6.46645 6.45881 6.22945 6.9104C5.96002 7.42378 5.96002 8.09585 5.96002 9.43998V14.4C5.96002 15.144 5.96002 15.516 6.04425 15.8212C6.27283 16.6493 6.93916 17.2963 7.79222 17.5182C8.10657 17.6 8.48973 17.6 9.25602 17.6Z" stroke="black" stroke-width="2" stroke-linecap="round" stroke-linejoin="round"/>
</svg>
