<svg width="28" height="27" viewBox="0 0 28 27" fill="none" xmlns="http://www.w3.org/2000/svg">
<ellipse cx="13.788" cy="13.2" rx="13.596" ry="13.2" fill="url(#paint0_linear_301_368)"/>
<path d="M9.25596 9.99998H13.376M9.25596 12.8H15.848M9.25596 17.6V19.4684C9.25596 19.8947 9.25596 20.1078 9.34597 20.2173C9.42424 20.3125 9.54294 20.3679 9.66841 20.3677C9.81268 20.3676 9.9841 20.2345 10.327 19.9681L12.2926 18.4414C12.6941 18.1296 12.8949 17.9737 13.1185 17.8628C13.3168 17.7644 13.5279 17.6925 13.7461 17.649C13.9921 17.6 14.2492 17.6 14.7633 17.6H16.8368C18.2212 17.6 18.9134 17.6 19.4422 17.3384C19.9074 17.1083 20.2855 16.7412 20.5225 16.2896C20.792 15.7761 20.792 15.1041 20.792 13.76V9.43998C20.792 8.09585 20.792 7.42378 20.5225 6.9104C20.2855 6.45881 19.9074 6.09166 19.4422 5.86156C18.9134 5.59998 18.2212 5.59998 16.8368 5.59998H9.91516C8.53071 5.59998 7.83848 5.59998 7.3097 5.86156C6.84456 6.09166 6.46639 6.45881 6.22939 6.9104C5.95996 7.42378 5.95996 8.09585 5.95996 9.43998V14.4C5.95996 15.144 5.95996 15.516 6.04419 15.8212C6.27277 16.6493 6.9391 17.2963 7.79216 17.5182C8.10651 17.6 8.48967 17.6 9.25596 17.6Z" stroke="black" stroke-width="2" stroke-linecap="round" stroke-linejoin="round"/>
<defs>
<linearGradient id="paint0_linear_301_368" x1="10.7087" y1="19.3313" x2="15.6045" y2="26.1583" gradientUnits="userSpaceOnUse">
<stop stop-color="#C8B7A5"/>
<stop offset="1" stop-color="#C0A588"/>
</linearGradient>
</defs>
</svg>
