<svg width="20" height="20" viewBox="0 0 20 20" fill="none" xmlns="http://www.w3.org/2000/svg">
<path d="M17.4471 10.894C17.613 10.8109 17.7525 10.6832 17.8499 10.5253C17.9474 10.3674 17.999 10.1856 17.999 10C17.999 9.81446 17.9474 9.63257 17.8499 9.47468C17.7525 9.3168 17.613 9.18915 17.4471 9.10601L3.44709 2.10601C3.2735 2.01915 3.07839 1.98469 2.88555 2.00683C2.69271 2.02897 2.51049 2.10676 2.3611 2.2307C2.21172 2.35464 2.10163 2.51937 2.04428 2.70481C1.98692 2.89025 1.98477 3.08837 2.03809 3.27501L3.46709 8.27501C3.52686 8.48398 3.65309 8.66779 3.82668 8.79861C4.00026 8.92943 4.21173 9.00013 4.42909 9.00001L9.00009 9.00001C9.26531 9.00001 9.51966 9.10536 9.7072 9.2929C9.89473 9.48044 10.0001 9.73479 10.0001 10C10.0001 10.2652 9.89473 10.5196 9.7072 10.7071C9.51966 10.8946 9.26531 11 9.00009 11L4.42909 11C4.21173 10.9999 4.00026 11.0706 3.82668 11.2014C3.65309 11.3322 3.52686 11.516 3.46709 11.725L2.03909 16.725C1.98566 16.9116 1.98768 17.1097 2.0449 17.2951C2.10213 17.4806 2.21208 17.6454 2.36134 17.7694C2.51061 17.8934 2.69275 17.9714 2.88554 17.9937C3.07833 18.016 3.27345 17.9817 3.44709 17.895L17.4471 10.895L17.4471 10.894Z" fill="#3F3F46"/>
</svg>
