<svg width="28" height="27" viewBox="0 0 28 27" fill="none" xmlns="http://www.w3.org/2000/svg">
<ellipse cx="14.1721" cy="13.2" rx="13.596" ry="13.2" fill="url(#paint0_linear_301_68)"/>
<path fill-rule="evenodd" clip-rule="evenodd" d="M13.6132 5.99676C13.0532 5.05551 11.8276 4.70511 10.8615 5.27626L9.42396 6.09886C8.3637 6.70497 8.0042 8.06403 8.60988 9.11233L8.61032 9.11307C8.92277 9.65213 8.87372 9.99648 8.7762 10.1657C8.67862 10.3351 8.40539 10.5497 7.78438 10.5497C6.56207 10.5497 5.57605 11.5483 5.57605 12.758V14.2246C5.57605 15.4344 6.56207 16.433 7.78438 16.433C8.40539 16.433 8.67862 16.6476 8.7762 16.8169C8.87372 16.9861 8.92277 17.3305 8.61032 17.8696L8.60988 17.8703C8.0042 18.9186 8.36403 20.2779 9.4243 20.884L10.8615 21.7064C11.8277 22.2775 13.0532 21.9271 13.6132 20.9859L13.7086 20.8211C14.0211 20.2821 14.3452 20.1517 14.5416 20.1517C14.7372 20.1517 15.0588 20.281 15.3671 20.8188L15.3685 20.8211L15.4601 20.9795L15.4639 20.9859C16.0239 21.9271 17.2494 22.2775 18.2156 21.7064L19.6531 20.8838C20.7141 20.2772 21.0714 18.9276 20.4687 17.8729L20.4668 17.8696C20.1543 17.3305 20.2034 16.9861 20.3009 16.8169C20.3985 16.6476 20.6717 16.433 21.2927 16.433C22.5151 16.433 23.5011 15.4344 23.5011 14.2246V12.758C23.5011 11.5357 22.5024 10.5497 21.2927 10.5497C20.6717 10.5497 20.3985 10.3351 20.3009 10.1657C20.2034 9.99648 20.1543 9.65213 20.4668 9.11307L20.4672 9.11233C21.073 8.06392 20.7133 6.70468 19.6528 6.09867L18.2156 5.27626C17.2495 4.70511 16.0239 5.05548 15.4639 5.99674L15.3685 6.16151C15.056 6.70061 14.7319 6.83091 14.5354 6.83091C14.3399 6.83091 14.0183 6.70171 13.71 6.16382L13.7086 6.16151L13.617 6.00316L13.6132 5.99676ZM17.0344 13.4913C17.0344 14.8721 15.9151 15.9913 14.5344 15.9913C13.1536 15.9913 12.0344 14.8721 12.0344 13.4913C12.0344 12.1106 13.1536 10.9913 14.5344 10.9913C15.9151 10.9913 17.0344 12.1106 17.0344 13.4913Z" fill="#200B00"/>
<defs>
<linearGradient id="paint0_linear_301_68" x1="11.0927" y1="19.3313" x2="15.9885" y2="26.1583" gradientUnits="userSpaceOnUse">
<stop stop-color="#C8B7A5"/>
<stop offset="1" stop-color="#C0A588"/>
</linearGradient>
</defs>
</svg>
