<svg width="28" height="27" viewBox="0 0 28 27" fill="none" xmlns="http://www.w3.org/2000/svg">
<path d="M20.408 20.3555C19.8402 17.8667 17.7005 16.4 13.8161 16.4C9.93174 16.4 7.79173 17.8667 7.22398 20.3555M13.816 22.8C19.277 22.8 23.704 18.502 23.704 13.2C23.704 7.89806 19.277 3.59999 13.816 3.59999C8.35499 3.59999 3.92798 7.89806 3.92798 13.2C3.92798 18.502 8.35499 22.8 13.816 22.8ZM13.816 13.2C15.2808 13.2 16.0133 12.4381 16.0133 10.5333C16.0133 8.62857 15.2808 7.86666 13.816 7.86666C12.3511 7.86666 11.6186 8.62857 11.6186 10.5333C11.6186 12.4381 12.3511 13.2 13.816 13.2Z" stroke="black" stroke-width="2" stroke-linecap="round" stroke-linejoin="round"/>
</svg>
